<?xml version="1.0" encoding="UTF-8" standalone="no"?>
<!-- Created with Inkscape (http://www.inkscape.org/) -->

<svg
   width="96.107094mm"
   height="21.011869mm"
   viewBox="0 0 96.107095 21.01187"
   version="1.1"
   id="svg5"
   inkscape:version="1.1.2 (0a00cf5, 2022-02-04)"
   sodipodi:docname="0.svg"
   xmlns:inkscape="http://www.inkscape.org/namespaces/inkscape"
   xmlns:sodipodi="http://sodipodi.sourceforge.net/DTD/sodipodi-0.dtd"
   xmlns="http://www.w3.org/2000/svg"
   xmlns:svg="http://www.w3.org/2000/svg">
  <sodipodi:namedview
     id="namedview7"
     pagecolor="#222222"
     bordercolor="#eeeeee"
     borderopacity="1"
     inkscape:pageshadow="0"
     inkscape:pageopacity="0"
     inkscape:pagecheckerboard="0"
     inkscape:document-units="mm"
     showgrid="false"
     fit-margin-top="0"
     fit-margin-left="0"
     fit-margin-right="0"
     fit-margin-bottom="0"
     showguides="true"
     inkscape:guide-bbox="true"
     inkscape:zoom="0.5"
     inkscape:cx="-161"
     inkscape:cy="394"
     inkscape:window-width="1920"
     inkscape:window-height="1045"
     inkscape:window-x="1920"
     inkscape:window-y="0"
     inkscape:window-maximized="1"
     inkscape:current-layer="layer1" />
  <defs
     id="defs2" />
  <g
     inkscape:label="Layer 1"
     inkscape:groupmode="layer"
     id="layer1"
     transform="translate(-21.460461,-122.47317)"
     style="display:inline">
    <g
       id="g162977"
       transform="translate(-41.312978,-73.108711)">
      <path
         d="m 74.729658,211.48985 q 0,-0.77821 0.555869,-1.30376 0.55587,-0.52555 1.3543,-0.52555 0.808538,0 1.344194,0.52555 0.545763,0.52555 0.545763,1.30376 0,0.4447 -0.141494,0.91972 -0.141494,0.4649 -0.505336,1.18248 l -1.435154,3.0017 h -1.809103 l 0.889392,-3.57778 q -0.363842,-0.26278 -0.58619,-0.63672 -0.212241,-0.38406 -0.212241,-0.8894 z m 4.699624,0 q 0,-0.77821 0.555869,-1.30376 0.555869,-0.52555 1.3543,-0.52555 0.808538,0 1.344194,0.52555 0.545762,0.52555 0.545762,1.30376 0,0.4447 -0.141494,0.91972 -0.141494,0.4649 -0.495229,1.18248 l -1.44526,3.0017 h -1.809103 l 0.889391,-3.57778 q -0.363842,-0.26278 -0.586189,-0.63672 -0.212241,-0.38406 -0.212241,-0.8894 z"
         id="path13677"
         style="font-weight:bold;font-size:19.7081px;line-height:1.25;font-family:'Fira Code';-inkscape-font-specification:'Fira Code, Bold';fill:#ffffff;stroke-width:0.492703" />
      <path
         d="m 138.51552,211.48985 q 0,-0.77821 0.55587,-1.30376 0.55587,-0.52555 1.3543,-0.52555 0.80854,0 1.34419,0.52555 0.54577,0.52555 0.54577,1.30376 0,0.4447 -0.1415,0.91972 -0.14149,0.4649 -0.50533,1.18248 l -1.43516,3.0017 h -1.8091 l 0.88939,-3.57778 q -0.36384,-0.26278 -0.58619,-0.63672 -0.21224,-0.38406 -0.21224,-0.8894 z m 4.69962,0 q 0,-0.77821 0.55587,-1.30376 0.55587,-0.52555 1.3543,-0.52555 0.80854,0 1.3442,0.52555 0.54576,0.52555 0.54576,1.30376 0,0.4447 -0.14149,0.91972 -0.1415,0.4649 -0.49523,1.18248 l -1.44526,3.0017 h -1.80911 l 0.88939,-3.57778 q -0.36384,-0.26278 -0.58619,-0.63672 -0.21224,-0.38406 -0.21224,-0.8894 z"
         id="path13685"
         style="font-weight:bold;font-size:19.7081px;line-height:1.25;font-family:'Fira Code';-inkscape-font-specification:'Fira Code, Bold';fill:#ffffff;stroke-width:0.492703" />
      <path
         d="m 66.007589,205.8402 q 0,1.25323 0.192028,2.31444 0.192027,1.0511 0.636723,2.04155 0.444695,0.99046 1.182486,2.02135 0.73779,1.02078 1.829316,2.20326 l -1.859636,1.67772 q -1.596862,-1.37452 -2.769241,-2.90063 -1.172379,-1.52611 -1.809102,-3.33522 -0.636724,-1.8091 -0.636724,-4.02247 0,-2.21337 0.636724,-4.02247 0.636723,-1.80911 1.809102,-3.33522 1.172379,-1.52612 2.769241,-2.90063 l 1.859636,1.67772 q -1.3543,1.47558 -2.203265,2.80966 -0.848964,1.32398 -1.243126,2.71871 -0.394162,1.38462 -0.394162,3.05223 z"
         id="path13675"
         style="font-weight:bold;font-size:19.7081px;line-height:1.25;font-family:'Fira Code';-inkscape-font-specification:'Fira Code, Bold';fill:#ffffff;stroke-width:0.492703" />
      <path
         d="m 115.63286,209.66307 q 0.68979,0.90657 1.16278,1.24161 0.473,0.33503 0.86716,0.33503 0.43358,0 0.7292,-0.0591 0.29562,-0.0591 0.4927,-0.13796 v 1.75402 q -0.21679,0.13796 -0.61095,0.21679 -0.37446,0.0985 -0.80803,0.0985 -0.63066,0 -1.12337,-0.17737 -0.4927,-0.15766 -1.00511,-0.61095 -0.4927,-0.473 -1.20219,-1.32044 -0.9657,1.2219 -1.73432,1.67518 -0.7489,0.43358 -1.63577,0.43358 -0.92628,0 -1.43869,-0.31533 v -1.75402 q 0.19708,0.0788 0.4927,0.13796 0.31533,0.0591 0.67008,0.0591 0.4927,0 0.94599,-0.31533 0.45328,-0.33503 1.16278,-1.24161 -0.90658,-0.9854 -1.53724,-2.02993 -0.61095,-1.06424 -0.61095,-2.30585 0,-0.9657 0.45329,-1.7146 0.45329,-0.74891 1.28103,-1.18249 0.82774,-0.45329 1.9511,-0.45329 1.12336,0 1.93139,0.45329 0.82774,0.43358 1.28103,1.18249 0.45328,0.7489 0.45328,1.7146 0,1.24161 -0.65036,2.32556 -0.65037,1.06423 -1.51753,1.99052 z"
         id="path13681"
         style="font-weight:bold;font-size:19.7081px;line-height:1.25;font-family:'Fira Code';-inkscape-font-specification:'Fira Code, Bold';fill:#ffffff;stroke-width:0.492703" />
      <path
         d="m 130.59188,208.88232 q -0.81864,0 -1.47558,-0.37395 -0.64683,-0.38405 -1.03088,-1.04099 -0.37395,-0.65694 -0.37395,-1.46547 0,-0.82875 0.37395,-1.46548 0.38405,-0.64683 1.03088,-1.02078 0.65694,-0.37394 1.47558,-0.37394 0.82875,0 1.47558,0.38405 0.64683,0.37395 1.02078,1.02078 0.38406,0.64683 0.38406,1.47558 0,0.81864 -0.38406,1.46547 -0.37395,0.64683 -1.02078,1.02078 -0.64683,0.37395 -1.47558,0.37395 z"
         id="path13683"
         style="font-weight:bold;font-size:19.7081px;line-height:1.25;font-family:'Fira Code';-inkscape-font-specification:'Fira Code, Bold';fill:#ffffff;stroke-width:0.492703" />
      <path
         d="m 155.64638,205.8402 q 0,-1.66761 -0.39416,-3.05223 -0.39416,-1.39473 -1.24313,-2.71871 -0.83885,-1.33408 -2.20326,-2.80966 l 1.85963,-1.67772 q 1.59687,1.37451 2.76925,2.90063 1.17237,1.52611 1.8091,3.33522 0.63672,1.8091 0.63672,4.02247 0,2.21337 -0.63672,4.02247 -0.63673,1.80911 -1.8091,3.33522 -1.17238,1.52611 -2.76925,2.90063 l -1.85963,-1.67772 q 1.09152,-1.18248 1.82931,-2.20326 0.7378,-1.03089 1.18249,-2.02135 0.4447,-0.99045 0.63672,-2.04155 0.19203,-1.06121 0.19203,-2.31444 z"
         id="path13687"
         style="font-weight:bold;font-size:19.7081px;line-height:1.25;font-family:'Fira Code';-inkscape-font-specification:'Fira Code, Bold';fill:#ffffff;stroke-width:0.492703" />
      <path
         d="m 97.61908,208.88232 q -0.81864,0 -1.47558,-0.37395 -0.64683,-0.38405 -1.03088,-1.04099 -0.37395,-0.65694 -0.37395,-1.46547 0,-0.82875 0.37395,-1.46548 0.38405,-0.64683 1.03088,-1.02078 0.65694,-0.37394 1.47558,-0.37394 0.82875,0 1.47558,0.38405 0.64683,0.37395 1.02078,1.02078 0.38406,0.64683 0.38406,1.47558 0,0.81864 -0.38406,1.46547 -0.37395,0.64683 -1.02078,1.02078 -0.64683,0.37395 -1.47558,0.37395 z"
         id="path13683-4"
         style="font-weight:bold;font-size:19.7081px;line-height:1.25;font-family:'Fira Code';-inkscape-font-specification:'Fira Code, Bold';display:inline;fill:#ffffff;stroke-width:0.492703" />
    </g>
  </g>
</svg>
