<?xml version="1.0" encoding="UTF-8" standalone="no"?>
<!-- Created with Inkscape (http://www.inkscape.org/) -->

<svg
   width="103.46062mm"
   height="20.52866mm"
   viewBox="0 0 103.46062 20.52866"
   version="1.1"
   id="svg5"
   inkscape:version="1.1.2 (0a00cf5, 2022-02-04)"
   sodipodi:docname="1.svg"
   xmlns:inkscape="http://www.inkscape.org/namespaces/inkscape"
   xmlns:sodipodi="http://sodipodi.sourceforge.net/DTD/sodipodi-0.dtd"
   xmlns="http://www.w3.org/2000/svg"
   xmlns:svg="http://www.w3.org/2000/svg">
  <sodipodi:namedview
     id="namedview7"
     pagecolor="#222222"
     bordercolor="#eeeeee"
     borderopacity="1"
     inkscape:pageshadow="0"
     inkscape:pageopacity="0"
     inkscape:pagecheckerboard="0"
     inkscape:document-units="mm"
     showgrid="false"
     fit-margin-top="0"
     fit-margin-left="0"
     fit-margin-right="0"
     fit-margin-bottom="0"
     showguides="true"
     inkscape:guide-bbox="true"
     inkscape:zoom="0.45254834"
     inkscape:cx="-127.05825"
     inkscape:cy="282.84271"
     inkscape:window-width="1392"
     inkscape:window-height="877"
     inkscape:window-x="2304"
     inkscape:window-y="116"
     inkscape:window-maximized="0"
     inkscape:current-layer="layer1" />
  <defs
     id="defs2" />
  <g
     inkscape:label="Layer 1"
     inkscape:groupmode="layer"
     id="layer1"
     transform="translate(-21.256257,-149.12973)"
     style="display:inline">
    <g
       id="g162986"
       transform="translate(-41.312978,-73.108711)">
      <path
         d="m 133.60759,233.70067 q -0.57024,0 -1.02784,-0.26048 -0.45056,-0.26752 -0.71807,-0.72512 -0.26048,-0.45759 -0.26048,-1.02078 0,-0.57728 0.26048,-1.0208 0.26751,-0.45056 0.71807,-0.71103 0.4576,-0.26048 1.02784,-0.26048 0.57727,0 1.02783,0.26752 0.45056,0.26048 0.71103,0.71103 0.26752,0.45056 0.26752,1.02783 0,0.57024 -0.26752,1.02079 -0.26047,0.45056 -0.71103,0.71104 -0.45056,0.26048 -1.02783,0.26048 z"
         id="path13679-7"
         style="font-weight:bold;font-size:19.7081px;line-height:1.25;font-family:'Fira Code';-inkscape-font-specification:'Fira Code, Bold';display:inline;fill:#ffffff;stroke-width:0.343197" />
      <path
         d="m 65.803385,232.50878 q 0,1.25323 0.192028,2.31444 0.192027,1.0511 0.636723,2.04155 0.444695,0.99046 1.182486,2.02135 0.73779,1.02078 1.829316,2.20326 l -1.859636,1.67772 q -1.596862,-1.37452 -2.769241,-2.90063 -1.172379,-1.52611 -1.809102,-3.33522 -0.636724,-1.8091 -0.636724,-4.02247 0,-2.21337 0.636724,-4.02247 0.636723,-1.80911 1.809102,-3.33522 1.172379,-1.52612 2.769241,-2.90063 l 1.859636,1.67772 q -1.3543,1.47558 -2.203265,2.80966 -0.848964,1.32398 -1.243126,2.71871 -0.394162,1.38462 -0.394162,3.05223 z"
         id="path13675-4"
         style="font-weight:bold;font-size:19.7081px;line-height:1.25;font-family:'Fira Code';-inkscape-font-specification:'Fira Code, Bold';display:inline;fill:#ffffff;stroke-width:0.492703" />
      <path
         d="m 162.7957,232.49676 q 0,-1.66761 -0.39416,-3.05223 -0.39416,-1.39473 -1.24313,-2.71871 -0.83885,-1.33408 -2.20326,-2.80966 l 1.85963,-1.67772 q 1.59687,1.37451 2.76925,2.90063 1.17237,1.52611 1.8091,3.33522 0.63672,1.8091 0.63672,4.02247 0,2.21337 -0.63672,4.02247 -0.63673,1.80911 -1.8091,3.33522 -1.17238,1.52611 -2.76925,2.90063 l -1.85963,-1.67772 q 1.09152,-1.18248 1.82931,-2.20326 0.7378,-1.03089 1.18249,-2.02135 0.4447,-0.99045 0.63672,-2.04155 0.19203,-1.06121 0.19203,-2.31444 z"
         id="path13687-2"
         style="font-weight:bold;font-size:19.7081px;line-height:1.25;font-family:'Fira Code';-inkscape-font-specification:'Fira Code, Bold';display:inline;fill:#ffffff;stroke-width:0.492703" />
      <path
         style="fill:#ffffff;fill-opacity:1;stroke-width:0.264583"
         d="m 88.509278,226.10453 -0.3981,-0.76984 1.91266,-1.17503 c 1.051962,-0.64627 2.056927,-1.25655 2.233247,-1.35618 0.20261,-0.11448 0.51904,0.20788 0.85989,0.876 0.29662,0.58143 0.53888,1.15118 0.53836,1.26612 -8.6e-4,0.18828 -4.118921,1.92877 -4.563545,1.92877 -0.101428,0 -0.363559,-0.34643 -0.582512,-0.76984 z"
         id="path14077" />
      <path
         style="fill:#ffffff;fill-opacity:1;stroke-width:0.264583"
         d="m 145.13994,226.03553 c -0.81257,-0.89793 -1.4774,-1.79089 -1.4774,-1.98438 0,-0.25213 0.43097,-0.35115 1.52135,-0.34955 l 1.52135,0.002 0.86737,1.65141 c 1.08886,2.07314 1.08353,2.31289 -0.0514,2.31289 -0.77145,0 -1.12023,-0.23913 -2.38125,-1.63259 z"
         id="path14075" />
      <path
         style="fill:#ffffff;fill-opacity:1;stroke-width:0.264583"
         d="m 108.57275,238.25145 c -0.7044,-0.58208 -1.3722,-1.05833 -1.48401,-1.05833 -0.11181,0 -0.20329,-0.35719 -0.20329,-0.79375 0,-1.26558 1.0775,-0.9973 2.96187,0.73745 l 0.7129,0.65631 1.24258,-1.09376 c 0.73558,-0.64749 1.50759,-1.09375 1.8921,-1.09375 0.68144,0 2.02839,1.01846 2.14556,1.15743 0.0978,0.11593 0.33941,0.34893 0.70435,0.58805 0.64812,0.42466 0.691,0.40944 1.84618,-0.65536 1.5576,-1.43575 2.34318,-1.44203 3.97259,-0.0318 0.67254,0.58208 1.31387,1.05833 1.42518,1.05833 0.1113,0 0.49101,-0.30897 0.8438,-0.68659 0.72051,-0.77124 1.86321,-1.43007 2.48038,-1.43007 0.27918,0 0.41001,0.25327 0.41001,0.79375 0,0.43656 -0.11182,0.79375 -0.24849,0.79375 -0.13667,0 -0.79876,0.47625 -1.4713,1.05833 -1.65766,1.43469 -2.54737,1.42877 -4.2023,-0.028 l -1.2341,-1.0863 -1.17849,1.0863 c -1.55315,1.43164 -2.34021,1.43718 -3.96844,0.028 -0.67255,-0.58208 -1.26786,-1.05833 -1.32292,-1.05833 -0.0551,0 -0.65037,0.47625 -1.32292,1.05833 -0.80579,0.69741 -1.47819,1.05833 -1.97166,1.05833 -0.48381,0 -1.20213,-0.37457 -2.02958,-1.05833 z"
         id="path14069"
         sodipodi:nodetypes="sssscssssssssssssscsssssss" />
      <path
         d="m 101.43932,233.70067 q -0.57024,0 -1.02784,-0.26048 -0.450556,-0.26752 -0.718066,-0.72512 -0.26048,-0.45759 -0.26048,-1.02078 0,-0.57728 0.26048,-1.0208 0.26751,-0.45056 0.718066,-0.71103 0.4576,-0.26048 1.02784,-0.26048 0.57727,0 1.02783,0.26752 0.45056,0.26048 0.71103,0.71103 0.26752,0.45056 0.26752,1.02783 0,0.57024 -0.26752,1.02079 -0.26047,0.45056 -0.71103,0.71104 -0.45056,0.26048 -1.02783,0.26048 z"
         id="path13679-7-2"
         style="font-weight:bold;font-size:19.7081px;line-height:1.25;font-family:'Fira Code';-inkscape-font-specification:'Fira Code, Bold';display:inline;fill:#ffffff;stroke-width:0.343197" />
    </g>
  </g>
</svg>
