<?xml version="1.0" encoding="UTF-8" standalone="no"?>
<!-- Created with Inkscape (http://www.inkscape.org/) -->

<svg
   width="72.872505mm"
   height="21.360245mm"
   viewBox="0 0 72.872506 21.360245"
   version="1.1"
   id="svg5"
   inkscape:version="1.1.2 (0a00cf5, 2022-02-04)"
   sodipodi:docname="drawing.svg"
   xmlns:inkscape="http://www.inkscape.org/namespaces/inkscape"
   xmlns:sodipodi="http://sodipodi.sourceforge.net/DTD/sodipodi-0.dtd"
   xmlns="http://www.w3.org/2000/svg"
   xmlns:svg="http://www.w3.org/2000/svg">
  <sodipodi:namedview
     id="namedview7"
     pagecolor="#222222"
     bordercolor="#eeeeee"
     borderopacity="1"
     inkscape:pageshadow="0"
     inkscape:pageopacity="0"
     inkscape:pagecheckerboard="0"
     inkscape:document-units="mm"
     showgrid="false"
     fit-margin-top="0"
     fit-margin-left="0"
     fit-margin-right="0"
     fit-margin-bottom="0"
     showguides="true"
     inkscape:guide-bbox="true"
     inkscape:zoom="0.70710678"
     inkscape:cx="283.54982"
     inkscape:cy="248.90159"
     inkscape:window-width="1392"
     inkscape:window-height="877"
     inkscape:window-x="2335"
     inkscape:window-y="336"
     inkscape:window-maximized="0"
     inkscape:current-layer="layer1" />
  <defs
     id="defs2" />
  <g
     inkscape:label="Layer 1"
     inkscape:groupmode="layer"
     id="layer1"
     transform="translate(-20.058243,-200.50508)"
     style="display:inline">
    <g
       id="g166228"
       transform="translate(-41.312978,-70.793284)">
      <path
         style="fill:#ffffff;fill-opacity:0.996078;stroke-width:0.137127"
         d="m 116.76318,276.5194 c 0,-0.0761 0.33321,-0.51616 0.74045,-0.97775 0.40725,-0.46158 0.94518,-1.12534 1.1954,-1.47502 l 0.45494,-0.63579 h 1.74134 c 0.95774,0 1.74134,0.0479 1.74134,0.10646 0,0.16758 -1.07486,1.1221 -2.43784,2.16489 l -1.24915,0.95572 h -1.09324 c -0.6569,0 -1.09324,-0.0553 -1.09324,-0.13851 z"
         id="path162950" />
      <path
         style="fill:#ffffff;fill-opacity:0.996078;stroke-width:0.137127"
         d="m 88.374777,275.63242 c -1.464579,-1.1255 -2.377354,-1.92965 -2.377354,-2.09441 0,-0.0589 0.777603,-0.10717 1.728007,-0.10717 h 1.728006 l 0.998311,1.2604 c 0.549072,0.69322 1.092997,1.33595 1.208725,1.42831 0.11573,0.0923 0.210416,0.25126 0.210416,0.35313 0,0.14159 -0.255326,0.18469 -1.083795,0.18296 l -1.083794,-0.003 -1.328522,-1.02095 z"
         id="path162948" />
      <path
         style="fill:#ffffff;fill-opacity:0.996078;stroke-width:0.137127"
         d="m 74.467269,280.93251 c -0.70136,-0.14382 -1.016851,-0.42059 -1.219029,-1.06942 -0.122833,-0.3942 -0.12075,-0.6444 0.0089,-1.06023 0.223855,-0.7184 0.811263,-1.06808 1.795328,-1.06876 0.611575,-4.1e-4 0.8071,0.064 1.188677,0.39186 0.420561,0.3613 0.456702,0.45682 0.456702,1.20709 0,0.69753 -0.05215,0.86489 -0.36255,1.16334 -0.442976,0.42592 -1.13254,0.58691 -1.867952,0.43612 z"
         id="path162946" />
      <path
         style="fill:#ffffff;fill-opacity:0.996078;stroke-width:0.137127"
         d="m 114.40046,285.72296 c -0.9594,-0.24807 -1.97216,-0.77762 -2.75616,-1.44117 -0.59615,-0.50455 -0.61473,-0.54434 -0.61473,-1.31563 0,-0.43743 0.0314,-0.79533 0.0696,-0.79533 0.0383,0 0.36866,0.20626 0.73419,0.45837 1.32164,0.91156 3.6999,1.36603 6.0486,1.15585 1.84528,-0.16513 2.93452,-0.5174 4.02051,-1.30028 l 0.4545,-0.32764 v 0.87038 c 0,0.84847 -0.014,0.88188 -0.55719,1.32894 -0.7671,0.63133 -1.75689,1.12846 -2.73404,1.37318 -1.04908,0.26272 -3.63767,0.25902 -4.66527,-0.007 z"
         id="path162944" />
      <path
         style="fill:#ffffff;fill-opacity:0.996078;stroke-width:0.137127"
         d="m 87.818789,285.71996 c -0.865832,-0.22371 -1.753036,-0.6829 -2.625472,-1.35886 -0.590012,-0.45715 -0.594338,-0.46692 -0.594338,-1.34146 v -0.88095 l 0.454494,0.33272 c 0.619725,0.45367 1.45287,0.84972 2.187714,1.03998 1.826024,0.47277 4.872952,0.39801 6.424048,-0.15761 0.826718,-0.29614 1.753531,-0.80289 1.90803,-1.04325 0.215692,-0.33556 0.353111,-0.0827 0.353111,0.64972 0,0.76122 -0.02224,0.80933 -0.61668,1.33621 -0.738206,0.65425 -1.746173,1.16542 -2.836542,1.4385 -1.032919,0.25869 -3.627521,0.25033 -4.654365,-0.015 z"
         id="path162942" />
      <path
         style="fill:#ffffff;fill-opacity:0.996078;stroke-width:0.137127"
         d="m 72.713493,291.28036 c 6.98e-4,-0.0924 0.220835,-1.1967 0.489173,-2.45392 0.26834,-1.25722 0.488015,-2.30097 0.488169,-2.31946 1.4e-4,-0.0185 0.661046,-0.0336 1.468646,-0.0336 1.305513,0 1.468281,0.0261 1.467586,0.23531 -0.0014,0.41902 -0.286899,1.2759 -1.008053,3.02538 l -0.706686,1.71438 h -1.100062 c -0.787505,0 -1.099695,-0.0478 -1.098773,-0.16808 z"
         id="path162940" />
      <path
         style="fill:#ffffff;fill-opacity:0.996078;stroke-width:0.137127"
         d="m 127.69603,291.18166 -0.884,-0.79275 1.00037,-1.1846 c 1.89831,-2.24792 2.6603,-3.84989 2.92761,-6.155 0.38755,-3.34176 -0.52601,-6.09948 -2.9968,-9.04623 l -0.92932,-1.10835 0.86578,-0.77412 c 0.47617,-0.42575 0.92047,-0.79418 0.98731,-0.81872 0.18044,-0.0662 1.20026,0.80927 2.13454,1.83247 2.39527,2.62323 3.44221,5.20801 3.44221,8.49844 0,2.6351 -0.65528,4.7625 -2.11187,6.85631 -0.82714,1.18899 -3.06873,3.50233 -3.38297,3.49126 -0.0929,-0.004 -0.56666,-0.3627 -1.05286,-0.79871 z"
         id="path162938" />
      <path
         style="fill:#ffffff;fill-opacity:0.996078;stroke-width:0.137127"
         d="m 66.114979,291.44572 c -0.836331,-0.68929 -2.36517,-2.45032 -2.981254,-3.43404 -1.251556,-1.99842 -1.761182,-3.85025 -1.762501,-6.40444 -0.0011,-2.16562 0.328209,-3.57856 1.263325,-5.42012 0.728842,-1.43535 2.41215,-3.52832 3.573802,-4.44357 0.70869,-0.55836 0.663659,-0.57086 1.877921,0.52122 l 0.710778,0.63926 -0.697941,0.80638 c -1.541248,1.7807 -2.500534,3.42263 -2.967623,5.0794 -0.425926,1.51076 -0.423885,4.38516 0.0041,5.84273 0.494347,1.68338 1.323195,3.07087 2.906252,4.86506 0.432052,0.48968 0.762872,0.9041 0.735153,0.92095 -0.02772,0.0169 -0.447296,0.37647 -0.932396,0.7992 -0.485099,0.42271 -0.925609,0.76818 -0.978911,0.7677 -0.05331,-5.3e-4 -0.391139,-0.24336 -0.75075,-0.53973 z"
         id="path162936" />
      <path
         style="fill:#ffffff;fill-opacity:0.996078;stroke-width:0.137127"
         d="m 98.163881,291.38122 v -1.27738 h 5.314099 5.31408 v 1.27738 1.27739 h -5.31408 -5.314099 z"
         id="path160786" />
    </g>
  </g>
</svg>
