<?xml version="1.0" encoding="UTF-8" standalone="no"?>
<!-- Created with Inkscape (http://www.inkscape.org/) -->

<svg
   width="111.18595mm"
   height="21.105955mm"
   viewBox="0 0 111.18595 21.105956"
   version="1.1"
   id="svg5"
   inkscape:version="1.1.2 (0a00cf5, 2022-02-04)"
   sodipodi:docname="drawing.svg"
   xmlns:inkscape="http://www.inkscape.org/namespaces/inkscape"
   xmlns:sodipodi="http://sodipodi.sourceforge.net/DTD/sodipodi-0.dtd"
   xmlns="http://www.w3.org/2000/svg"
   xmlns:svg="http://www.w3.org/2000/svg">
  <sodipodi:namedview
     id="namedview7"
     pagecolor="#222222"
     bordercolor="#eeeeee"
     borderopacity="1"
     inkscape:pageshadow="0"
     inkscape:pageopacity="0"
     inkscape:pagecheckerboard="0"
     inkscape:document-units="mm"
     showgrid="false"
     fit-margin-top="0"
     fit-margin-left="0"
     fit-margin-right="0"
     fit-margin-bottom="0"
     showguides="true"
     inkscape:guide-bbox="true"
     inkscape:zoom="0.70710678"
     inkscape:cx="140.71425"
     inkscape:cy="381.83766"
     inkscape:window-width="1392"
     inkscape:window-height="877"
     inkscape:window-x="2335"
     inkscape:window-y="336"
     inkscape:window-maximized="0"
     inkscape:current-layer="layer1" />
  <defs
     id="defs2" />
  <g
     inkscape:label="Layer 1"
     inkscape:groupmode="layer"
     id="layer1"
     transform="translate(-20.003243,-255.44507)"
     style="display:inline">
    <g
       id="g179361"
       transform="translate(-13.970992,19.874563)">
      <path
         style="display:inline;fill:#ffffff;fill-opacity:0.996078;stroke-width:0.137127"
         d="m 103.385,255.4538 -0.884,-0.79275 1.00037,-1.1846 c 1.89831,-2.24792 2.6603,-3.84989 2.92761,-6.155 0.38755,-3.34176 -0.52601,-6.09948 -2.9968,-9.04623 l -0.92932,-1.10835 0.86578,-0.77412 c 0.47617,-0.42575 0.92047,-0.79418 0.98731,-0.81872 0.18044,-0.0662 1.20026,0.80927 2.13454,1.83247 2.39527,2.62323 3.44221,5.20801 3.44221,8.49844 0,2.6351 -0.65528,4.7625 -2.11187,6.85631 -0.82714,1.18899 -3.06873,3.50233 -3.38297,3.49126 -0.0929,-0.004 -0.56666,-0.3627 -1.05286,-0.79871 z"
         id="path162938-9-7" />
      <path
         style="display:inline;fill:#ffffff;fill-opacity:0.996078;stroke-width:0.137127"
         d="m 73.985234,255.8678 c -0.83633,-0.68929 -2.365168,-2.45032 -2.981248,-3.43404 -1.25156,-1.99842 -1.76119,-3.85025 -1.76251,-6.40444 -0.001,-2.16562 0.32821,-3.57856 1.26333,-5.42012 0.72884,-1.43535 2.412148,-3.52832 3.573798,-4.44357 0.70869,-0.55836 0.66366,-0.57086 1.87792,0.52122 l 0.71078,0.63926 -0.69794,0.80638 c -1.54125,1.7807 -2.50053,3.42263 -2.96762,5.0794 -0.425928,1.51076 -0.423888,4.38516 0.004,5.84273 0.49434,1.68338 1.32319,3.07087 2.90625,4.86506 0.43205,0.48968 0.76287,0.9041 0.73515,0.92095 -0.0277,0.0169 -0.44729,0.37647 -0.93239,0.7992 -0.4851,0.42271 -0.92561,0.76818 -0.97892,0.7677 -0.0533,-5.3e-4 -0.39113,-0.24336 -0.75075,-0.53973 z"
         id="path162936-4-1" />
      <path
         style="fill:#ffffff;fill-opacity:0.996078;stroke-width:0.264583"
         d="m 138.83058,238.61865 0.0814,-1.12448 h 3.04271 3.0427 l 0.0814,1.12448 0.0814,1.12448 h -3.20542 -3.20543 z"
         id="path168167" />
      <path
         style="fill:#ffffff;fill-opacity:0.996078;stroke-width:0.264583"
         d="m 34.055591,238.61865 0.08136,-1.12448 h 3.042708 3.042708 l 0.08136,1.12448 0.08136,1.12448 h -3.205426 -3.205426 z"
         id="path168165" />
      <path
         style="fill:#ffffff;fill-opacity:0.996078;stroke-width:0.264583"
         d="m 88.773404,243.99564 c 0,-0.2805 -0.34977,-1.49839 -0.77726,-2.70643 -0.42749,-1.20804 -0.73686,-2.23682 -0.6875,-2.28619 0.0494,-0.0494 0.63628,-0.25424 1.30424,-0.45526 1.09942,-0.33088 1.23696,-0.3229 1.45175,0.0842 0.27501,0.52122 1.61919,4.7315 1.61919,5.07165 0,0.12595 -0.60118,0.35793 -1.33594,0.51551 -1.68284,0.3609 -1.57448,0.37628 -1.57448,-0.22348 z"
         id="path168163" />
      <path
         style="fill:#ffffff;fill-opacity:0.996078;stroke-width:0.264583"
         d="m 84.804654,245.54651 c 0,-0.15511 -0.54078,-1.36059 -1.20173,-2.67882 -0.66095,-1.31824 -1.16697,-2.42381 -1.12448,-2.45682 0.0425,-0.033 0.43444,-0.18458 0.871,-0.33682 0.43656,-0.15224 0.98656,-0.35528 1.22221,-0.4512 0.33465,-0.13621 0.69673,0.345 1.65365,2.19778 0.67385,1.3047 1.22518,2.50632 1.22518,2.67028 0,0.16396 -0.54565,0.532 -1.21256,0.81787 -1.41126,0.60494 -1.43327,0.60859 -1.43327,0.23773 z"
         id="path168161" />
      <path
         style="fill:#ffffff;fill-opacity:0.996078;stroke-width:0.264583"
         d="m 85.499224,251.76711 c -0.38626,-0.69109 -0.67079,-1.28125 -0.63229,-1.31145 0.0385,-0.0302 0.76779,-0.27067 1.62062,-0.53436 4.3705,-1.35132 7.28124,-4.88465 7.75457,-9.41324 l 0.16291,-1.55868 h 0.999 c 1.50167,0 1.83604,0.21186 1.83604,1.16334 0,2.68737 -1.94996,7.07909 -4.09605,9.22519 -1.45233,1.45233 -4.48212,3.19366 -6.13025,3.52329 -0.75364,0.15073 -0.86294,0.0718 -1.51455,-1.09409 z"
         id="path168159" />
      <path
         style="fill:#ffffff;fill-opacity:0.996078;stroke-width:0.264583"
         d="m 125.2369,254.554 -0.97504,-0.51842 2.26283,-4.69883 c 1.24456,-2.58436 3.13357,-6.51453 4.19779,-8.73373 1.06423,-2.21919 2.05826,-4.03489 2.20896,-4.03489 0.51567,0 2.14404,0.89138 2.14371,1.17348 -7.9e-4,0.64132 -8.15159,17.21977 -8.49229,17.27293 -0.20401,0.0318 -0.80969,-0.17541 -1.34596,-0.46054 z"
         id="path168157" />
      <path
         style="fill:#ffffff;fill-opacity:0.996078;stroke-width:0.264583"
         d="m 49.830729,250.12802 c -1.315598,-2.72851 -3.205633,-6.66222 -4.200078,-8.74157 l -1.808082,-3.78063 1.176592,-0.57163 c 0.736758,-0.35795 1.266876,-0.47772 1.418111,-0.32041 0.32565,0.33873 8.224885,16.87005 8.224885,17.21283 0,0.27397 -1.639204,1.16235 -2.144734,1.16235 -0.151084,0 -1.351096,-2.23242 -2.666694,-4.96094 z"
         id="path168155" />
      <path
         style="fill:#ffffff;fill-opacity:0.996078;stroke-width:0.264583"
         d="m 112.5859,255.35354 v -1.32291 h 5.02708 5.02708 v 1.32291 1.32292 h -5.02708 -5.02708 z"
         id="path168149" />
      <path
         style="fill:#ffffff;fill-opacity:0.996078;stroke-width:0.264583"
         d="m 56.49424,255.35354 v -1.32291 h 5.027083 5.027083 v 1.32291 1.32292 H 61.521323 56.49424 Z"
         id="path166290" />
    </g>
  </g>
</svg>
