<?xml version="1.0" encoding="UTF-8" standalone="no"?>
<!-- Created with Inkscape (http://www.inkscape.org/) -->

<svg
   width="58.16256mm"
   height="21.081072mm"
   viewBox="0 0 58.162559 21.081073"
   version="1.1"
   id="svg5"
   inkscape:version="1.1.2 (0a00cf5, 2022-02-04)"
   sodipodi:docname="drawing.svg"
   xmlns:inkscape="http://www.inkscape.org/namespaces/inkscape"
   xmlns:sodipodi="http://sodipodi.sourceforge.net/DTD/sodipodi-0.dtd"
   xmlns="http://www.w3.org/2000/svg"
   xmlns:svg="http://www.w3.org/2000/svg">
  <sodipodi:namedview
     id="namedview7"
     pagecolor="#222222"
     bordercolor="#eeeeee"
     borderopacity="1"
     inkscape:pageshadow="0"
     inkscape:pageopacity="0"
     inkscape:pagecheckerboard="0"
     inkscape:document-units="mm"
     showgrid="false"
     fit-margin-top="0"
     fit-margin-left="0"
     fit-margin-right="0"
     fit-margin-bottom="0"
     showguides="true"
     inkscape:guide-bbox="true"
     inkscape:zoom="0.70710678"
     inkscape:cx="140.71425"
     inkscape:cy="274.35743"
     inkscape:window-width="1392"
     inkscape:window-height="877"
     inkscape:window-x="2335"
     inkscape:window-y="336"
     inkscape:window-maximized="0"
     inkscape:current-layer="layer1" />
  <defs
     id="defs2" />
  <g
     inkscape:label="Layer 1"
     inkscape:groupmode="layer"
     id="layer1"
     transform="translate(-19.885983,-283.869)"
     style="display:inline">
    <g
       id="g179492"
       transform="translate(-13.970992,19.874563)">
      <path
         id="path171315"
         style="fill:#ffffff;fill-opacity:0.996078;stroke-width:0.264583"
         d="m 75.382703,266.83067 c -2.435947,0 -4.328604,1.45611 -5.164542,3.97288 -0.641069,1.93008 -0.45865,6.299 0.325562,7.78971 0.646771,1.22944 1.778659,2.3709 2.722314,2.74608 1.075788,0.42771 3.217521,0.32541 4.396115,-0.2098 2.14471,-0.97396 3.276801,-3.35622 3.276801,-6.89623 0,-4.68698 -2.038329,-7.40264 -5.55625,-7.40264 z m 0,2.36988 c 0.200335,0 0.400667,0.091 0.727604,0.27337 0.988931,0.55155 1.356517,1.78968 1.372526,4.62142 0.01579,2.79402 -0.311478,4.19471 -1.111043,4.75475 -0.317762,0.22257 -0.762804,0.40462 -0.989087,0.40462 -0.74762,0 -1.563219,-0.79453 -1.840714,-1.79369 -0.367162,-1.32203 -0.323016,-5.52351 0.06976,-6.66419 0.176583,-0.51282 0.6365,-1.096 1.043347,-1.32291 0.326938,-0.18234 0.527272,-0.27337 0.727604,-0.27337 z" />
      <path
         id="path171311"
         style="fill:#ffffff;fill-opacity:0.996078;stroke-width:0.264583"
         d="m 50.856035,270.28265 c -1.58863,5.8e-4 -2.624159,0.46101 -3.619934,1.56322 -2.414632,2.67271 -1.742734,7.76387 1.218015,9.22941 1.317156,0.65197 3.487205,0.74414 4.782137,0.20308 2.212001,-0.92423 3.482152,-3.88039 2.886644,-6.71948 -0.559628,-2.66806 -2.059466,-4.06865 -4.550627,-4.24884 -0.251018,-0.0182 -0.489286,-0.0275 -0.716235,-0.0274 z m 0.05374,2.38125 c 0.397367,-0.009 0.818266,0.15175 1.22628,0.48214 0.567616,0.45962 0.624769,0.71054 0.624769,2.75022 0,1.83594 -0.09209,2.34582 -0.504362,2.80138 -0.277215,0.30632 -0.823974,0.55707 -1.21543,0.55707 -1.285682,0 -1.719792,-0.83482 -1.719792,-3.30729 0,-1.78564 0.09352,-2.29682 0.503846,-2.75022 0.313452,-0.34638 0.687322,-0.5245 1.084689,-0.5333 z" />
      <path
         style="display:inline;fill:#ffffff;fill-opacity:0.996078;stroke-width:0.137127"
         d="m 85.471838,284.00007 -0.884,-0.79275 1.00037,-1.1846 c 1.89831,-2.24792 2.6603,-3.84989 2.92761,-6.155 0.38755,-3.34176 -0.52601,-6.09948 -2.9968,-9.04623 l -0.92932,-1.10835 0.86578,-0.77412 c 0.47617,-0.42575 0.92047,-0.79418 0.98731,-0.81872 0.18044,-0.0662 1.20026,0.80927 2.13454,1.83247 2.39527,2.62323 3.442208,5.20801 3.442208,8.49844 0,2.6351 -0.655278,4.7625 -2.111868,6.85631 -0.82714,1.18899 -3.06873,3.50233 -3.38297,3.49126 -0.0929,-0.004 -0.56666,-0.3627 -1.05286,-0.79871 z"
         id="path162938-9-7-0" />
      <path
         style="display:inline;fill:#ffffff;fill-opacity:0.996078;stroke-width:0.137127"
         d="m 38.600735,284.06988 c -0.83633,-0.68929 -2.365168,-2.45032 -2.981248,-3.43404 -1.25156,-1.99842 -1.76119,-3.85025 -1.76251,-6.40444 -10e-4,-2.16562 0.32821,-3.57856 1.26333,-5.42012 0.72884,-1.43535 2.412148,-3.52832 3.573798,-4.44357 0.70869,-0.55836 0.66366,-0.57086 1.87792,0.52122 l 0.71078,0.63926 -0.69794,0.80638 c -1.54125,1.7807 -2.50053,3.42263 -2.96762,5.0794 -0.425928,1.51076 -0.423888,4.38516 0.004,5.84273 0.49434,1.68338 1.32319,3.07087 2.90625,4.86506 0.43205,0.48968 0.76287,0.9041 0.73515,0.92095 -0.0277,0.0169 -0.44729,0.37647 -0.93239,0.7992 -0.4851,0.42271 -0.92561,0.76818 -0.97892,0.7677 -0.0533,-5.3e-4 -0.39113,-0.24336 -0.75075,-0.53973 z"
         id="path162936-4-1-6" />
      <path
         style="fill:#ffffff;fill-opacity:0.996078;stroke-width:0.264583"
         d="m 58.184586,283.75259 v -1.32292 h 5.027083 5.027084 v 1.32292 1.32292 h -5.027084 -5.027083 z"
         id="path168829" />
    </g>
  </g>
</svg>
