<?xml version="1.0" encoding="UTF-8" standalone="no"?>
<!-- Created with Inkscape (http://www.inkscape.org/) -->

<svg
   width="99.203049mm"
   height="21.396166mm"
   viewBox="0 0 99.203048 21.396167"
   version="1.1"
   id="svg5"
   inkscape:version="1.1.2 (0a00cf5, 2022-02-04)"
   sodipodi:docname="drawing.svg"
   xmlns:inkscape="http://www.inkscape.org/namespaces/inkscape"
   xmlns:sodipodi="http://sodipodi.sourceforge.net/DTD/sodipodi-0.dtd"
   xmlns="http://www.w3.org/2000/svg"
   xmlns:svg="http://www.w3.org/2000/svg">
  <sodipodi:namedview
     id="namedview7"
     pagecolor="#222222"
     bordercolor="#eeeeee"
     borderopacity="1"
     inkscape:pageshadow="0"
     inkscape:pageopacity="0"
     inkscape:pagecheckerboard="0"
     inkscape:document-units="mm"
     showgrid="false"
     fit-margin-top="0"
     fit-margin-left="0"
     fit-margin-right="0"
     fit-margin-bottom="0"
     showguides="true"
     inkscape:guide-bbox="true"
     inkscape:zoom="0.70710678"
     inkscape:cx="185.96908"
     inkscape:cy="323.85491"
     inkscape:window-width="1392"
     inkscape:window-height="877"
     inkscape:window-x="2335"
     inkscape:window-y="336"
     inkscape:window-maximized="0"
     inkscape:current-layer="layer1" />
  <defs
     id="defs2" />
  <g
     inkscape:label="Layer 1"
     inkscape:groupmode="layer"
     id="layer1"
     transform="translate(-20.450201,-315.13571)"
     style="display:inline">
    <g
       id="g184172"
       transform="translate(-13.970992,19.874563)">
      <g
         id="g179503">
        <path
           style="fill:#ffffff;fill-opacity:0.996078;stroke-width:0.332195"
           d="m 41.039403,307.03658 c -0.913537,-1.11619 -2.776355,-3.06175 -4.139593,-4.32347 l -2.478617,-2.29404 1.173194,-1.17319 1.173194,-1.17321 2.444029,2.26015 c 1.344217,1.24308 3.240199,3.22416 4.213291,4.4024 l 1.769261,2.14227 -1.062909,1.09664 c -0.5846,0.60315 -1.145702,1.09557 -1.246891,1.09427 -0.101185,-10e-4 -0.931422,-0.91563 -1.844959,-2.03182 z"
           id="path171834" />
        <path
           style="fill:#ffffff;fill-opacity:0.996078;stroke-width:0.139437"
           d="m 104.47203,299.32005 c -0.85896,-0.79285 -1.58204,-1.54581 -1.60683,-1.67323 -0.0399,-0.20523 0.13938,-0.2317 1.56958,-0.2317 h 1.61465 l 0.6454,1.01091 c 0.35498,0.55601 0.82516,1.23955 1.04486,1.51901 0.21969,0.27944 0.39945,0.57748 0.39945,0.66232 0,0.0991 -0.37654,0.15423 -1.05268,0.15423 h -1.05269 z"
           id="path179328" />
        <path
           style="fill:#ffffff;fill-opacity:0.996078;stroke-width:0.139437"
           d="m 70.909695,300.60736 c 0,-0.0849 0.180163,-0.38288 0.400363,-0.66232 0.220198,-0.27946 0.693835,-0.963 1.052525,-1.51901 l 0.652165,-1.01091 h 1.596761 c 1.202337,0 1.596759,0.0439 1.596759,0.17804 0,0.17275 -1.197908,1.39026 -2.541594,2.58319 -0.650008,0.57707 -0.67384,0.58524 -1.708093,0.58524 -0.673372,0 -1.048886,-0.0552 -1.048886,-0.15423 z"
           id="path179326" />
        <path
           style="fill:#ffffff;fill-opacity:0.996078;stroke-width:0.139437"
           d="m 99.075797,308.69261 c -0.458198,-0.18216 -1.086433,-0.7861 -1.357015,-1.30454 -0.119151,-0.22827 -0.216619,-0.7501 -0.216619,-1.1596 0,-0.59516 0.08123,-0.86159 0.405226,-1.32791 0.469322,-0.67562 1.419742,-1.21222 2.139141,-1.20775 1.61193,0.01 2.92327,1.68839 2.51213,3.21525 -0.16832,0.62508 -0.82653,1.43959 -1.4051,1.73879 -0.44255,0.22885 -1.555596,0.25337 -2.077763,0.0458 z"
           id="path179324" />
        <path
           style="fill:#ffffff;fill-opacity:0.996078;stroke-width:0.139437"
           d="m 64.983971,308.62921 c -1.021078,-0.5324 -1.525139,-1.41629 -1.434053,-2.51468 0.193176,-2.32945 2.899209,-3.20374 4.484594,-1.4489 1.453783,1.60916 0.243682,4.18523 -1.964666,4.18239 -0.367333,-4.1e-4 -0.855976,-0.0989 -1.085875,-0.21881 z"
           id="path179322" />
        <path
           style="fill:#ffffff;fill-opacity:0.996078;stroke-width:0.139437"
           d="m 78.404387,313.42765 c -0.367062,-0.13407 -0.383449,-0.18063 -0.383449,-1.08966 v -0.94962 l 0.592604,0.13467 c 0.844387,0.19189 1.449751,-0.0329 2.234833,-0.83001 l 0.66485,-0.675 -0.706696,-0.88057 c -1.107277,-1.37969 -1.428181,-2.1172 -1.501742,-3.45134 -0.05368,-0.97344 -0.01767,-1.23439 0.245215,-1.77744 1.299499,-2.68441 5.810418,-2.70671 7.103718,-0.0351 0.322577,0.66635 0.392793,2.02415 0.149896,2.89858 -0.164797,0.59327 -1.105306,2.10126 -1.700217,2.7261 l -0.419136,0.44021 0.607408,0.661 c 0.774368,0.84268 1.312462,1.07444 2.216248,0.95455 l 0.691856,-0.0918 v 0.91893 0.91892 l -0.591509,0.15928 c -0.755899,0.20353 -1.83953,0.11149 -2.520843,-0.214 -0.293031,-0.14002 -0.847578,-0.6122 -1.232327,-1.04929 l -0.699543,-0.79472 -0.700865,0.74106 c -0.926108,0.97922 -1.875678,1.45074 -2.89247,1.43629 -0.42591,-0.006 -0.946934,-0.0741 -1.157831,-0.15106 z"
           id="path179320" />
        <path
           style="fill:#ffffff;fill-opacity:0.996078;stroke-width:0.139437"
           d="m 110.40156,315.81612 -0.87488,-0.83148 0.99091,-1.22035 c 1.92408,-2.36959 2.68,-4.04413 2.93137,-6.49369 0.10145,-0.98859 0.0968,-1.77319 -0.0161,-2.72827 -0.30101,-2.54582 -1.06453,-4.18675 -3.10357,-6.67013 l -0.82682,-1.00699 0.8008,-0.73596 c 0.44045,-0.40478 0.88654,-0.78606 0.99132,-0.84731 0.52863,-0.30901 3.35987,2.89526 4.4105,4.99162 0.19217,0.38345 0.52577,1.23052 0.74134,1.88239 0.3696,1.11771 0.39234,1.32815 0.39914,3.69506 0.006,2.06558 -0.0396,2.67027 -0.25674,3.41618 -0.38995,1.33898 -1.08405,2.78602 -1.9083,3.97833 -0.79418,1.14882 -2.94007,3.41476 -3.22644,3.40693 -0.0977,-0.003 -0.57133,-0.37903 -1.05252,-0.83633 z"
           id="path179318" />
        <path
           style="fill:#ffffff;fill-opacity:0.996078;stroke-width:0.139437"
           d="m 53.399688,315.48123 c -0.631027,-0.64686 -1.4333,-1.57685 -1.782831,-2.06667 -0.777838,-1.09005 -1.679728,-2.95367 -1.973363,-4.07765 -0.496032,-1.89872 -0.495565,-4.9405 0.001,-6.83237 0.391284,-1.49062 1.488644,-3.51507 2.688247,-4.95937 0.609407,-0.73373 1.3966,-1.57051 1.749315,-1.85953 0.733677,-0.60119 0.682979,-0.61502 1.891444,0.51536 l 0.703261,0.65782 -1.04006,1.28906 c -1.220953,1.51327 -2.158239,3.2398 -2.597354,4.78448 -0.411006,1.4458 -0.447743,4.50737 -0.071,5.91652 0.466241,1.74388 1.386045,3.36488 2.966337,5.22764 0.43079,0.50779 0.760643,0.93753 0.733005,0.955 -0.02763,0.0174 -0.44599,0.39041 -0.929672,0.82877 -0.483684,0.43836 -0.949543,0.79702 -1.035244,0.79702 -0.0857,0 -0.672113,-0.52924 -1.303138,-1.17608 z"
           id="path172034" />
        <path
           style="fill:#ffffff;fill-opacity:0.996078;stroke-width:0.273477"
           d="m 121.34244,311.02978 -0.82203,-1.19477 1.98774,-0.98239 c 2.17787,-1.07636 4.46703,-3.2344 5.73694,-5.4083 0.75707,-1.29601 2.09741,-4.84659 2.09741,-5.55606 0,-0.21956 0.11199,-0.46841 0.2488,-0.55297 0.40607,-0.25097 3.03294,0.46013 3.03294,0.82103 0,0.56542 -1.40318,4.56691 -2.05767,5.86794 -0.89944,1.78793 -2.94921,4.42444 -4.29656,5.52642 -1.42137,1.16253 -4.0566,2.67386 -4.66222,2.67386 -0.24384,0 -0.81324,-0.53765 -1.26535,-1.19476 z"
           id="path171934" />
      </g>
    </g>
  </g>
</svg>
