<?xml version="1.0" encoding="UTF-8" standalone="no"?>
<!-- Created with Inkscape (http://www.inkscape.org/) -->

<svg
   width="94.580627mm"
   height="21.377592mm"
   viewBox="0 0 94.580627 21.377593"
   version="1.1"
   id="svg5"
   inkscape:version="1.1.2 (0a00cf5, 2022-02-04)"
   sodipodi:docname="drawing.svg"
   xmlns:inkscape="http://www.inkscape.org/namespaces/inkscape"
   xmlns:sodipodi="http://sodipodi.sourceforge.net/DTD/sodipodi-0.dtd"
   xmlns="http://www.w3.org/2000/svg"
   xmlns:svg="http://www.w3.org/2000/svg">
  <sodipodi:namedview
     id="namedview7"
     pagecolor="#222222"
     bordercolor="#eeeeee"
     borderopacity="1"
     inkscape:pageshadow="0"
     inkscape:pageopacity="0"
     inkscape:pagecheckerboard="0"
     inkscape:document-units="mm"
     showgrid="false"
     fit-margin-top="0"
     fit-margin-left="0"
     fit-margin-right="0"
     fit-margin-bottom="0"
     showguides="true"
     inkscape:guide-bbox="true"
     inkscape:zoom="0.70710678"
     inkscape:cx="184.55487"
     inkscape:cy="217.78889"
     inkscape:window-width="1392"
     inkscape:window-height="877"
     inkscape:window-x="2335"
     inkscape:window-y="336"
     inkscape:window-maximized="0"
     inkscape:current-layer="layer1" />
  <defs
     id="defs2" />
  <g
     inkscape:label="Layer 1"
     inkscape:groupmode="layer"
     id="layer1"
     transform="translate(-20.975811,-343.09315)"
     style="display:inline">
    <g
       id="g186227"
       transform="translate(-13.970992,19.874563)">
      <path
         style="fill:#ffffff;fill-opacity:1;stroke-width:0.272;stroke-miterlimit:4;stroke-dasharray:none"
         d="m 88.823336,329.86931 c 0.927865,-1.72987 3.341477,-5.84378 3.648809,-6.21925 0.311513,-0.38058 0.719276,-0.4764 1.760685,-0.41379 l 1.355283,0.0815 1.437844,2.48268 c 0.790815,1.36548 1.677647,2.88612 1.97074,3.37921 l 0.532894,0.89653 h -1.628153 -1.628153 l -1.012046,-1.9263 c -0.556622,-1.05946 -1.087707,-1.92841 -1.180185,-1.93098 -0.09247,-0.002 -0.612657,0.86426 -1.155952,1.9263 l -0.98781,1.93098 h -1.612461 c -0.886857,0 -1.56253,-0.0931 -1.501495,-0.2069 z"
         id="path185925" />
      <path
         style="fill:#ffffff;fill-opacity:1;stroke-width:0.272;stroke-miterlimit:4;stroke-dasharray:none"
         d="m 66.265708,329.86931 c 0.927865,-1.72987 3.341477,-5.84378 3.648809,-6.21925 0.311512,-0.38058 0.719276,-0.4764 1.760684,-0.41379 l 1.355284,0.0815 1.437844,2.48268 c 0.790814,1.36548 1.677646,2.88612 1.97074,3.37921 l 0.532897,0.89653 H 75.34381 73.715656 l -1.012045,-1.9263 c -0.556623,-1.05946 -1.087707,-1.92841 -1.180186,-1.93098 -0.09247,-0.002 -0.612657,0.86426 -1.155951,1.9263 l -0.98781,1.93098 h -1.612462 c -0.886856,0 -1.562529,-0.0931 -1.501494,-0.2069 z"
         id="path185923" />
      <path
         style="fill:#ffffff;fill-opacity:1;stroke-width:0.272;stroke-miterlimit:4;stroke-dasharray:none"
         d="m 120.32908,340.28247 c -0.2387,-0.61283 -0.43401,-1.21765 -0.43401,-1.34404 0,-0.12639 0.91783,-0.30949 2.03962,-0.4069 2.27353,-0.19742 4.20915,-0.94268 4.65099,-1.79075 0.45402,-0.87142 0.34485,-2.39813 -0.22287,-3.11688 -0.75568,-0.95669 -2.84666,-0.82373 -6.83706,0.43476 -1.75397,0.55316 -3.21465,0.96958 -3.24599,0.92537 -0.0314,-0.0442 -0.25279,-0.59744 -0.49216,-1.2294 l -0.43522,-1.14903 1.93566,-0.60488 c 7.28971,-2.27795 9.70487,-2.20048 11.57409,0.3713 0.36739,0.50546 0.57585,1.30445 0.64923,2.48837 0.23264,3.7529 -2.05228,5.72784 -7.36961,6.36987 l -1.37865,0.16646 z"
         id="path185921" />
      <path
         style="fill:#ffffff;fill-opacity:1;stroke-width:0.272;stroke-miterlimit:4;stroke-dasharray:none"
         d="m 78.203741,341.22895 c -0.110774,-0.1158 -0.201407,-0.62122 -0.201407,-1.12315 0,-0.85793 0.04624,-0.90312 0.77147,-0.75412 0.603232,0.12393 0.962435,-0.0168 1.647159,-0.64524 l 0.87569,-0.80372 -0.972385,-1.5044 c -2.244025,-3.47175 -0.96165,-6.8719 2.592315,-6.8734 3.659785,-0.001 4.924335,4.08325 2.266349,7.32083 -0.652222,0.79444 -0.664993,0.86914 -0.242102,1.41595 0.624271,0.8072 1.576651,1.25623 2.21974,1.04656 0.49108,-0.16011 0.536241,-0.0735 0.459804,0.88125 -0.08026,1.00269 -0.137246,1.06326 -1.075644,1.1434 -1.148156,0.0981 -2.403217,-0.48817 -3.092371,-1.44443 l -0.481976,-0.66879 -0.989909,0.98414 c -0.786434,0.78186 -1.25562,1.00999 -2.282618,1.1099 -0.710989,0.0691 -1.383341,0.031 -1.494115,-0.0848 z"
         id="path185919" />
      <path
         style="fill:#ffffff;fill-opacity:1;stroke-width:0.272;stroke-miterlimit:4;stroke-dasharray:none"
         d="m 53.193291,340.28247 c -0.23871,-0.61283 -0.434017,-1.21765 -0.434017,-1.34404 0,-0.12639 0.91783,-0.30949 2.039621,-0.4069 2.273538,-0.19742 4.209145,-0.94268 4.650992,-1.79075 0.45401,-0.87142 0.344842,-2.39813 -0.222879,-3.11688 -0.755669,-0.95669 -2.846654,-0.82373 -6.837056,0.43476 -1.753965,0.55316 -3.214657,0.96958 -3.245984,0.92537 -0.03133,-0.0442 -0.252805,-0.59744 -0.492173,-1.2294 l -0.435215,-1.14903 1.935668,-0.60488 c 7.289713,-2.27795 9.704864,-2.20048 11.574085,0.3713 0.367384,0.50546 0.575849,1.30445 0.649236,2.48837 0.232634,3.7529 -2.052283,5.72784 -7.369611,6.36987 l -1.378649,0.16646 z"
         id="path185917" />
      <path
         style="display:inline;fill:#ffffff;fill-opacity:0.996078;stroke-width:0.139437"
         d="m 39.074721,343.4201 c -0.631027,-0.64686 -1.4333,-1.57685 -1.782831,-2.06667 -0.777838,-1.09005 -1.679728,-2.95367 -1.973363,-4.07765 -0.496032,-1.89872 -0.495565,-4.9405 10e-4,-6.83237 0.391284,-1.49062 1.488644,-3.51507 2.688247,-4.95937 0.609407,-0.73373 1.3966,-1.57051 1.749315,-1.85953 0.733677,-0.60119 0.682979,-0.61502 1.891444,0.51536 l 0.703261,0.65782 -1.04006,1.28906 c -1.220953,1.51327 -2.158239,3.2398 -2.597354,4.78448 -0.411006,1.4458 -0.447743,4.50737 -0.071,5.91652 0.466241,1.74388 1.386045,3.36488 2.966337,5.22764 0.43079,0.50779 0.760643,0.93753 0.733005,0.955 -0.02763,0.0174 -0.44599,0.39041 -0.929672,0.82877 -0.483684,0.43836 -0.949543,0.79702 -1.035244,0.79702 -0.0857,0 -0.672113,-0.52924 -1.303138,-1.17608 z"
         id="path172034-4" />
      <path
         style="display:inline;fill:#ffffff;fill-opacity:0.996078;stroke-width:0.137127"
         d="m 104.37997,343.16841 -0.884,-0.79275 1.00037,-1.1846 c 1.89831,-2.24792 2.6603,-3.84989 2.92761,-6.155 0.38755,-3.34176 -0.52601,-6.09948 -2.9968,-9.04622 l -0.92932,-1.10835 0.86578,-0.77412 c 0.47617,-0.42575 0.92047,-0.79418 0.98731,-0.81872 0.18044,-0.0662 1.20026,0.80927 2.13454,1.83247 2.39527,2.62323 3.4422,5.20801 3.4422,8.49844 0,2.6351 -0.65527,4.7625 -2.11186,6.85631 -0.82714,1.18899 -3.06873,3.50233 -3.38297,3.49126 -0.0929,-0.004 -0.56666,-0.3627 -1.05286,-0.79872 z"
         id="path162938-9-7-0-9" />
    </g>
  </g>
</svg>
