<?xml version="1.0" encoding="UTF-8" standalone="no"?>
<!-- Created with Inkscape (http://www.inkscape.org/) -->

<svg
   width="96.783089mm"
   height="22.07962mm"
   viewBox="0 0 96.783088 22.079621"
   version="1.1"
   id="svg5"
   inkscape:version="1.1.2 (0a00cf5, 2022-02-04)"
   sodipodi:docname="drawing.svg"
   xmlns:inkscape="http://www.inkscape.org/namespaces/inkscape"
   xmlns:sodipodi="http://sodipodi.sourceforge.net/DTD/sodipodi-0.dtd"
   xmlns="http://www.w3.org/2000/svg"
   xmlns:svg="http://www.w3.org/2000/svg">
  <sodipodi:namedview
     id="namedview7"
     pagecolor="#222222"
     bordercolor="#eeeeee"
     borderopacity="1"
     inkscape:pageshadow="0"
     inkscape:pageopacity="0"
     inkscape:pagecheckerboard="0"
     inkscape:document-units="mm"
     showgrid="false"
     fit-margin-top="0"
     fit-margin-left="0"
     fit-margin-right="0"
     fit-margin-bottom="0"
     showguides="true"
     inkscape:guide-bbox="true"
     inkscape:zoom="0.70710678"
     inkscape:cx="184.55487"
     inkscape:cy="104.6518"
     inkscape:window-width="1392"
     inkscape:window-height="877"
     inkscape:window-x="2335"
     inkscape:window-y="336"
     inkscape:window-maximized="0"
     inkscape:current-layer="layer1" />
  <defs
     id="defs2" />
  <g
     inkscape:label="Layer 1"
     inkscape:groupmode="layer"
     id="layer1"
     transform="translate(-20.975811,-372.975)"
     style="display:inline">
    <g
       id="g184182"
       transform="translate(-15.256459,46.242482)">
      <path
         style="fill:#ffffff;fill-opacity:0.996078;stroke-width:0.278788"
         d="m 99.047934,330.65239 c -1.14999,-0.46529 -2.14593,-0.90064 -2.213185,-0.96744 -0.06724,-0.0668 0.156376,-0.69502 0.496952,-1.39603 0.589523,-1.21345 0.648873,-1.25564 1.237433,-0.88011 0.34002,0.21695 1.39774,0.87101 2.350516,1.45346 l 1.73233,1.059 -0.41524,0.80297 c -0.22839,0.44163 -0.56883,0.79648 -0.75657,0.78855 -0.18773,-0.008 -1.28223,-0.39512 -2.432236,-0.8604 z"
         id="path183389" />
      <path
         style="fill:#ffffff;fill-opacity:0.996078;stroke-width:0.278788"
         d="m 50.691185,330.71609 -0.419472,-0.81116 2.015345,-1.23814 c 1.10844,-0.68095 2.167354,-1.32399 2.353141,-1.42897 0.213491,-0.12063 0.546912,0.21904 0.906063,0.92303 0.312546,0.61263 0.567812,1.21299 0.567259,1.33408 -9.08e-4,0.1984 -4.340054,2.03232 -4.808552,2.03232 -0.106872,0 -0.383076,-0.36501 -0.613784,-0.81116 z"
         id="path183387" />
      <path
         style="fill:#ffffff;fill-opacity:0.996078;stroke-width:0.278788"
         d="m 71.169102,347.41819 v -1.39393 h 5.296979 5.29698 v 1.39393 1.39395 h -5.29698 -5.296979 z"
         id="path179505" />
      <path
         style="display:inline;fill:#ffffff;fill-opacity:0.996078;stroke-width:0.139437"
         d="m 40.360188,347.04531 c -0.631027,-0.64686 -1.4333,-1.57685 -1.782831,-2.06667 -0.777838,-1.09005 -1.679728,-2.95367 -1.973363,-4.07765 -0.496032,-1.89872 -0.495565,-4.9405 10e-4,-6.83237 0.391284,-1.49062 1.488644,-3.51507 2.688247,-4.95937 0.609407,-0.73373 1.3966,-1.57051 1.749315,-1.85953 0.733677,-0.60119 0.682979,-0.61502 1.891444,0.51536 l 0.703261,0.65782 -1.04006,1.28906 c -1.220953,1.51327 -2.158239,3.2398 -2.597354,4.78448 -0.411006,1.4458 -0.447743,4.50737 -0.071,5.91652 0.466241,1.74388 1.386045,3.36488 2.966337,5.22764 0.43079,0.50779 0.760643,0.93753 0.733005,0.955 -0.02763,0.0174 -0.44599,0.39041 -0.929672,0.82877 -0.483684,0.43836 -0.949543,0.79702 -1.035244,0.79702 -0.0857,0 -0.672113,-0.52924 -1.303138,-1.17608 z"
         id="path172034-9" />
      <path
         d="m 113.14759,336.99084 q 0,-1.66761 -0.39416,-3.05223 -0.39416,-1.39473 -1.24313,-2.71871 -0.83885,-1.33408 -2.20326,-2.80966 l 1.85963,-1.67772 q 1.59687,1.37451 2.76925,2.90063 1.17237,1.52611 1.8091,3.33522 0.63672,1.8091 0.63672,4.02247 0,2.21337 -0.63672,4.02247 -0.63673,1.80911 -1.8091,3.33522 -1.17238,1.52611 -2.76925,2.90063 l -1.85963,-1.67772 q 1.09152,-1.18248 1.82931,-2.20326 0.7378,-1.03089 1.18249,-2.02135 0.4447,-0.99045 0.63672,-2.04155 0.19203,-1.06121 0.19203,-2.31444 z"
         id="path13687-1"
         style="font-weight:bold;font-size:19.7081px;line-height:1.25;font-family:'Fira Code';-inkscape-font-specification:'Fira Code, Bold';display:inline;fill:#ffffff;stroke-width:0.492703" />
      <path
         style="display:inline;fill:#ffffff;fill-opacity:0.996078;stroke-width:0.264583"
         d="m 123.17711,345.45753 -0.97504,-0.51842 2.26283,-4.69883 c 1.24456,-2.58436 3.13357,-6.51453 4.19779,-8.73373 1.06423,-2.21919 2.05826,-4.03489 2.20896,-4.03489 0.51567,0 2.14404,0.89138 2.14371,1.17348 -7.9e-4,0.64132 -8.15159,17.21977 -8.49229,17.27293 -0.20401,0.0318 -0.80969,-0.17541 -1.34596,-0.46054 z"
         id="path168157-5" />
      <path
         style="display:inline;fill:#ffffff;fill-opacity:0.996078;stroke-width:0.139437"
         d="m 87.346073,338.99543 c -0.458198,-0.18216 -1.086433,-0.7861 -1.357015,-1.30454 -0.119151,-0.22827 -0.216619,-0.7501 -0.216619,-1.1596 0,-0.59516 0.08123,-0.86159 0.405226,-1.32791 0.469322,-0.67562 1.419742,-1.21222 2.139141,-1.20775 1.611925,0.01 2.923265,1.68839 2.512125,3.21525 -0.16832,0.62508 -0.82653,1.43959 -1.4051,1.73879 -0.442545,0.22885 -1.555591,0.25337 -2.077758,0.0458 z"
         id="path179324-4" />
      <path
         style="display:inline;fill:#ffffff;fill-opacity:0.996078;stroke-width:0.139437"
         d="m 64.19417,338.94 c -0.458198,-0.18216 -1.086433,-0.7861 -1.357015,-1.30454 -0.119151,-0.22827 -0.216619,-0.7501 -0.216619,-1.1596 0,-0.59516 0.08123,-0.86159 0.405226,-1.32791 0.469322,-0.67562 1.419742,-1.21222 2.139141,-1.20775 1.611925,0.01 2.923265,1.68839 2.512125,3.21525 -0.16832,0.62508 -0.82653,1.43959 -1.4051,1.73879 -0.442545,0.22885 -1.555591,0.25337 -2.077758,0.0458 z"
         id="path179324-4-1" />
    </g>
  </g>
</svg>
